<svg width="27" height="27" viewBox="0 0 27 27" fill="none" xmlns="http://www.w3.org/2000/svg">
<path d="M26 13.5C26 20.4036 20.4036 26 13.5 26C6.59644 26 1 20.4036 1 13.5C1 6.59644 6.59644 1 13.5 1C20.4036 1 26 6.59644 26 13.5Z" stroke="#113E21" stroke-width="2"/>
<path d="M26 13.5C26 20.4036 20.4036 26 13.5 26C6.59644 26 1 20.4036 1 13.5C1 6.59644 6.59644 1 13.5 1C20.4036 1 26 6.59644 26 13.5Z" stroke="#113E21" stroke-width="2"/>
<path d="M9.32422 12.1104L12.9357 15.7218V15.7218C13.2423 16.0284 13.7395 16.0284 14.0461 15.7218V15.7218L17.6576 12.1104" stroke="#113E21" stroke-width="2" stroke-linecap="round" stroke-linejoin="round"/>
</svg>
